<?xml version="1.0" encoding="utf-8"?>
<!-- Generator: Adobe Illustrator 19.1.0, SVG Export Plug-In . SVG Version: 6.00 Build 0)  -->
<svg version="1.1" id="Layer_1" xmlns="http://www.w3.org/2000/svg" xmlns:xlink="http://www.w3.org/1999/xlink" x="0px" y="0px"
	 viewBox="119.4 102.3 56.7 56.7" style="enable-background:new 119.4 102.3 56.7 56.7;" xml:space="preserve">
<style type="text/css">
	.st0{fill:#3B5996;}
	.st1{fill:#192647;}
	.st2{fill:#FFFFFF;}
</style>
<g>
	<polygon class="st0" points="129.7,120.2 147.8,109.8 165.8,120.2 165.8,141 147.8,151.4 129.7,141 	"/>
	<g>
		<path class="st1" d="M161.1,107.2l13.6,23.3l-13.4,23.4l-26.9,0.1l-13.6-23.3l13.4-23.4L161.1,107.2 M161.7,106.3l-0.5,0
			l-26.9,0.1l-0.5,0l-0.3,0.5L120,130.3l-0.3,0.5l0.3,0.5l13.6,23.3l0.3,0.5l0.5,0l26.9-0.1l0.5,0l0.3-0.5l13.4-23.4l0.3-0.5
			l-0.3-0.5l-13.6-23.3L161.7,106.3L161.7,106.3z"/>
	</g>
	<g>
		<path class="st1" d="M147.8,107.3l20.2,11.6v23.3l-20.2,11.6l-20.2-11.6V119L147.8,107.3 M147.8,106.3l-0.5,0.3l-20.2,11.6
			l-0.5,0.3v0.5v23.3v0.5l0.5,0.3l20.2,11.6l0.5,0.3l0.5-0.3l20.2-11.6l0.5-0.3v-0.5V119v-0.5l-0.5-0.3l-20.2-11.6L147.8,106.3
			L147.8,106.3z"/>
	</g>
	<path class="st2" d="M160.6,119.1h-5.3v0h-0.2c-1.1,3.3-2.2,6.6-3.3,10c-1.2,3.5-2.3,6.9-3.4,10.4l-0.4,1.3l-7.3-21.7h-0.2v0h-5.3
		v0.7h2.5l8.5,25h3.6l8.4-25h2.4V119.1z"/>
</g>
</svg>
