<?xml version="1.0" standalone="no"?>
<!DOCTYPE svg PUBLIC "-//W3C//DTD SVG 20010904//EN"
 "http://www.w3.org/TR/2001/REC-SVG-20010904/DTD/svg10.dtd">
<svg version="1.0" xmlns="http://www.w3.org/2000/svg"
 width="700.000000pt" height="700.000000pt" viewBox="0 0 700.000000 700.000000"
 preserveAspectRatio="xMidYMid meet">
<metadata>
Created by potrace 1.11, written by Peter Selinger 2001-2013
</metadata>
<g transform="translate(0.000000,700.000000) scale(0.100000,-0.100000)"
fill="#000000" stroke="none">
<path d="M2250 6492 l-475 -3 -424 -734 c-233 -405 -432 -740 -442 -746 -10
-5 -19 -20 -19 -32 0 -13 -191 -354 -425 -760 l-425 -736 416 -712 c228 -391
420 -723 427 -737 6 -15 17 -34 25 -44 7 -9 209 -351 447 -760 l434 -743 1468
3 c807 1 1584 5 1725 9 l257 6 422 736 c232 405 430 742 440 749 11 7 19 22
19 33 0 11 189 350 420 753 l420 733 -420 719 c-250 427 -420 729 -420 744 0
15 -11 35 -30 50 -25 21 -769 1279 -847 1433 l-24 47 -1247 -2 c-686 -2 -1461
-4 -1722 -6z m3260 -714 c200 -343 365 -627 368 -631 2 -5 -18 4 -45 20 -27
15 -516 296 -1086 623 l-1036 595 437 5 c240 3 564 6 718 8 l282 2 362 -622z
m-2235 593 c-33 -21 -2106 -1211 -2143 -1230 -21 -11 -23 -11 -14 6 6 10 166
290 356 623 262 459 351 607 369 612 12 3 346 6 742 7 709 1 720 0 690 -18z
m1477 -701 c672 -386 1229 -707 1236 -712 9 -8 12 -306 10 -1450 l-3 -1439
-1245 -715 -1244 -714 -101 58 c-55 32 -616 354 -1248 717 l-1147 658 2 1434
3 1435 1240 719 c682 395 1247 717 1257 715 9 -2 567 -320 1240 -706z m-3864
-2779 l-3 -621 -354 607 c-195 334 -354 612 -354 618 0 5 159 288 354 628
l354 618 3 -615 c1 -338 1 -894 0 -1235z m5596 1221 l346 -594 -336 -586
c-185 -323 -345 -600 -355 -617 -18 -29 -19 -6 -19 1190 0 711 4 1215 9 1210
5 -6 164 -277 355 -603z m-4244 -2887 l1044 -600 -714 -3 c-563 -2 -717 1
-726 10 -14 16 -714 1215 -714 1224 0 3 15 -3 33 -13 17 -10 502 -289 1077
-618z m3628 617 c-1 -4 -158 -278 -347 -609 l-344 -601 -701 -7 c-386 -4 -712
-6 -725 -4 -17 3 262 168 1040 616 585 336 1068 612 1072 612 5 1 7 -3 5 -7z"/>
<path d="M2395 5431 l-1110 -638 -3 -1286 -2 -1285 1112 -638 c611 -352 1114
-638 1118 -637 4 1 503 289 1109 639 l1101 636 -2 1286 -3 1285 -1070 619
c-588 340 -1086 627 -1105 638 l-36 18 -1109 -637z m680 -1816 c469 -1394 456
-1355 460 -1340 53 175 197 616 498 1528 l372 1127 342 0 343 0 0 -45 0 -45
-148 0 -148 0 -519 -1545 -519 -1545 -225 0 -226 0 -525 1545 -525 1545 -152
0 -153 0 0 45 0 45 342 -2 342 -3 441 -1310z"/>
</g>
</svg>
