<?xml version="1.0" ?><svg id="Layer_1" style="enable-background:new 0 0 100 100;" version="1.1" viewBox="0 0 100 100" xml:space="preserve" xmlns="http://www.w3.org/2000/svg" xmlns:xlink="http://www.w3.org/1999/xlink"><style type="text/css">
	.st0{fill:none;stroke:#000000;stroke-width:2;stroke-miterlimit:10;}
</style><path class="st0" d="M50,100.4"/><path class="st0" d="M50,100.4"/><path class="st0" d="M50,80.4"/><path class="st0" d="M50,80.4"/><path d="M63,29.7h-3.4v-7.3c0-0.9-0.2-1.7-0.7-2.5l-0.4-0.6c-0.6-1-1.5-1.7-2.6-2.1v-6.5c0-1.3-1-2.3-2.3-2.3h-7.2  c-1.3,0-2.3,1-2.3,2.3v6.6c-1,0.4-1.9,1.1-2.5,2l-0.4,0.6c-0.4,0.7-0.7,1.6-0.7,2.5v7.3H37c-1.5,0-2.7,1.2-2.7,2.7v50.8  c0,1.5,1.2,2.7,2.7,2.7h6.1c0.2,0.4,0.4,0.6,0.5,0.8c0.2,0.3,0.3,0.3,0.3,0.5s0,0.3-0.3,0.5c-0.3,0.3-0.7,0.9-0.7,1.8  s0.4,1.5,0.7,1.8c0.2,0.3,0.3,0.3,0.3,0.5c0,0.2,0,0.2-0.1,0.4c-0.4,0.5-0.5,1.3-0.2,1.9c0.3,0.6,0.9,1,1.7,1h8.6  c0.8,0,1.5-0.5,1.7-1.2c0-0.1,0.1-0.2,0.2-0.3c0.3-0.3,0.7-0.9,0.7-1.8s-0.4-1.5-0.7-1.8c-0.2-0.3-0.3-0.3-0.3-0.5  c0-0.2,0-0.3,0.3-0.5c0.3-0.3,0.7-0.9,0.7-1.8c0-0.6-0.2-1-0.4-1.3H63c1.5,0,2.7-1.2,2.7-2.7V32.4C65.8,30.9,64.5,29.7,63,29.7z   M46,10.8c0-0.2,0.1-0.3,0.3-0.3h7.2c0.2,0,0.3,0.1,0.3,0.3V17H46V10.8z M42.5,22.4c0-0.5,0.1-1,0.4-1.4l0.4-0.6  c0.5-0.8,1.4-1.4,2.4-1.4h8.8c1,0,1.9,0.5,2.4,1.4l0.4,0.6c0.3,0.4,0.4,0.9,0.4,1.4v7.3H42.5V22.4z M37,31.7h3.6h19.1H63  c0.4,0,0.7,0.3,0.7,0.7v9.9h-6.3H42.5h-6.3v-9.9C36.2,32,36.6,31.7,37,31.7z M57.6,66.9H42.5v-7.6c0-0.4,0.1-0.8,0.2-1.1l1.6-4.9  h11.6l1.6,4.9c0.1,0.4,0.2,0.7,0.2,1.1V66.9z M55.5,51.2H44.5v-6.9h10.9V51.2z M42.5,52.1l-1.7,5.5c-0.2,0.6-0.3,1.1-0.3,1.7v7.6  h-4.3V44.3h6.3V52.1z M40.5,68.9h19.1h4.1v3.9H36.2v-3.9H40.5z M59.6,66.9v-7.6c0-0.6-0.1-1.2-0.3-1.7l-1.9-6v-7.2h6.3v22.6H59.6z   M54.2,86.7c0.2,0.3,0.3,0.3,0.3,0.5s0,0.3-0.3,0.5c-0.3,0.3-0.7,0.9-0.7,1.8s0.4,1.5,0.7,1.8c0.2,0.3,0.3,0.3,0.3,0.5  s0,0.3-0.3,0.5c-0.2,0.2-0.4,0.5-0.5,0.8h-8.2c0.2-0.3,0.4-0.7,0.4-1.3c0-1-0.4-1.5-0.7-1.8c-0.2-0.3-0.3-0.3-0.3-0.5  c0-0.2,0-0.3,0.3-0.5c0.3-0.3,0.7-0.9,0.7-1.8c0-0.6-0.2-1-0.4-1.3h8.2C53.8,86.3,54,86.5,54.2,86.7z M63,83.9H37  c-0.4,0-0.7-0.3-0.7-0.7v-8.4h27.5v8.4C63.8,83.6,63.4,83.9,63,83.9z"/></svg>