<?xml version="1.0" ?><svg id="Layer_1" style="enable-background:new 0 0 100 100;" version="1.1" viewBox="0 0 100 100" xml:space="preserve" xmlns="http://www.w3.org/2000/svg" xmlns:xlink="http://www.w3.org/1999/xlink"><g><path d="M57.9,37.7h-0.3v-5c0-0.8-0.6-1.4-1.4-1.4H55v-7.2c0-1-0.7-1.9-1.6-2.2v-0.3v-3.4l0.2-0.6c0.3-0.8,0.2-1.6-0.3-2.3   c-0.5-0.7-1.2-1.1-2.1-1.1h-2.5c-0.9,0-1.7,0.4-2.1,1.2c-0.4,0.7-0.5,1.5-0.2,2.2l0.2,0.5v3.4v0.3c-0.9,0.3-1.6,1.2-1.6,2.2v7.2   h-1.2c-0.8,0-1.4,0.6-1.4,1.4v5h-0.3c-2.1,0-3.8,1.7-3.8,3.8v40.3c0,2.1,1.7,3.8,3.8,3.8h15.7c2.1,0,3.8-1.7,3.8-3.8V41.5   C61.7,39.4,60,37.7,57.9,37.7z M48.8,16.3h2.5c0.3,0,0.6,0.3,0.5,0.7L51.4,18v3.7h-2.8V18L48.3,17C48.2,16.7,48.4,16.3,48.8,16.3z    M47,24.1c0-0.2,0.2-0.3,0.3-0.3h5.3c0.2,0,0.3,0.2,0.3,0.3v7.2h-6V24.1z M44.5,33.3H45h10h0.6v4.3H44.5V33.3z M59.7,81.8   c0,1-0.8,1.8-1.8,1.8H42.1c-1,0-1.8-0.8-1.8-1.8V41.5c0-1,0.8-1.8,1.8-1.8h0.3h15.1h0.3c1,0,1.8,0.8,1.8,1.8V81.8z"/><path d="M50,54.3c2.7,0,5-2.2,5-5s-2.2-5-5-5c-2.7,0-5,2.2-5,5S47.3,54.3,50,54.3z M50,46.3c1.6,0,3,1.3,3,3s-1.3,3-3,3s-3-1.3-3-3   S48.4,46.3,50,46.3z"/><path d="M44.5,79.3h11V58.9h-11V79.3z M46.5,60.9h7v16.4h-7V60.9z"/></g></svg>