<?xml version="1.0" ?><svg id="Layer_1" style="enable-background:new 0 0 100 100;" version="1.1" viewBox="0 0 100 100" xml:space="preserve" xmlns="http://www.w3.org/2000/svg" xmlns:xlink="http://www.w3.org/1999/xlink"><path d="M58.9,44.1c-0.7-0.4-1.2-1.2-1.2-2.1v-1.2c1.5-0.1,2.7-1.4,2.7-2.9v0l0,0l-0.3-5.9c0-1.5-1.4-2.8-2.9-2.8h-0.6L56.4,21  c0-3.6-2.9-6.4-6.5-6.4c-3.6,0-6.5,2.8-6.5,6.4l-0.2,8.1h-0.5c-1.6,0-2.9,1.3-2.9,2.8l-0.3,5.9l0,0v0c0,1.6,1.1,2.8,2.7,2.9v1  c0,1-0.5,1.9-1.5,2.5c-3.2,2-5.1,5.4-5.1,9.2v28.2c0,2,1.7,3.7,3.7,3.7h21.3c2,0,3.7-1.7,3.7-3.7V53.5  C64.4,49.6,62.3,46.1,58.9,44.1z M57.9,46c2.3,1.4,3.9,3.7,4.2,6.4h-8.8V40.8h1.9h0.4V42C55.6,43.7,56.4,45.2,57.9,46z M48.9,52.3  V40.8h0.1h2.1h0.1v11.5H48.9z M51.1,54.6v14.3c0,0.6-0.5,1.1-1.1,1.1c-0.6,0-1.1-0.5-1.1-1.1V54.6H51.1z M41.6,37.9l0.3-6  c0-0.5,0.5-0.8,0.9-0.8h1.9c0.3,0,0.6-0.3,0.6-0.6l0.3-9.5c0-2.5,2-4.5,4.5-4.5c2.5,0,4.5,2,4.5,4.5l0.3,9.3c0,0.5,0.4,0.7,0.7,0.7  h1.8c0.5,0,0.9,0.4,0.9,0.8l0.3,6c0,0.5-0.4,0.9-0.9,0.9h-0.3h-2.1H53h-2h-2.1h-2.1h-2.1h-2h-0.3C41.9,38.8,41.6,38.5,41.6,37.9z   M41.9,46.1c1.6-1,2.5-2.6,2.5-4.3v-1h0.4h1.9v11.5h-8.8C38.1,49.8,39.6,47.5,41.9,46.1z M62.1,81.7c0,0.8-0.7,1.5-1.5,1.5H39.3  c-0.8,0-1.5-0.7-1.5-1.5V54.6h8.9v14.3c0,1.8,1.5,3.3,3.3,3.3c1.8,0,3.3-1.5,3.3-3.3V54.6h8.9V81.7z"/></svg>