<?xml version="1.0" ?><svg id="Layer_1" style="enable-background:new 0 0 100 100;" version="1.1" viewBox="0 0 100 100" xml:space="preserve" xmlns="http://www.w3.org/2000/svg" xmlns:xlink="http://www.w3.org/1999/xlink"><path d="M69.7,46.7c0-2.1-1.5-3.9-3.5-4.4v-5.3c0-1.9-1.6-3.5-3.5-3.5H47.5v-4.2c0-0.7-0.6-1.3-1.3-1.3h-0.9v-6.2  c0-0.9-0.5-1.6-1.3-2v-0.2v-2.9l0.2-0.5c0.3-0.7,0.2-1.6-0.3-2.2c-0.5-0.7-1.2-1.1-2-1.1h-2.2c-0.9,0-1.6,0.4-2.1,1.2  c-0.4,0.7-0.5,1.5-0.2,2.2l0.1,0.4v2.9v0.2c-0.8,0.3-1.3,1.1-1.3,2V28h-0.9c-0.7,0-1.3,0.6-1.3,1.3v4.2h-0.2c-1.9,0-3.5,1.6-3.5,3.5  v46.5c0,1.9,1.6,3.5,3.5,3.5h28.8c1.9,0,3.5-1.6,3.5-3.5V51.1C68.2,50.6,69.7,48.8,69.7,46.7z M39.7,14.9h2.2c0.3,0,0.5,0.3,0.4,0.6  L42,16.4v3.3h-2.4v-3.3l-0.3-0.8C39.1,15.3,39.3,14.9,39.7,14.9z M38.3,21.8c0-0.1,0.1-0.2,0.2-0.2h1.1H42h1.1  c0.1,0,0.2,0.1,0.2,0.2V28h-5V21.8z M36,30h0.2h9h0.2v3.6H36V30z M64.2,83.6c0,0.8-0.7,1.5-1.5,1.5H33.8c-0.8,0-1.5-0.7-1.5-1.5  V37.1c0-0.8,0.7-1.5,1.5-1.5H34h13.5h15.2c0.8,0,1.5,0.7,1.5,1.5V83.6z M66.2,49v-4.6c0.9,0.4,1.5,1.3,1.5,2.3S67,48.6,66.2,49z"/></svg>