<?xml version="1.0" ?><svg id="Layer_1" style="enable-background:new 0 0 100 100;" version="1.1" viewBox="0 0 100 100" xml:space="preserve" xmlns="http://www.w3.org/2000/svg" xmlns:xlink="http://www.w3.org/1999/xlink"><g><path d="M50,17.9c-17.7,0-32.1,14.4-32.1,32.1S32.3,82.1,50,82.1S82.1,67.7,82.1,50S67.7,17.9,50,17.9z M50,80.1   c-16.6,0-30.1-13.5-30.1-30.1c0-16.6,13.5-30.1,30.1-30.1c16.6,0,30.1,13.5,30.1,30.1C80.1,66.6,66.6,80.1,50,80.1z"/><path d="M64.5,36.5H44.3c-0.6,0-1,0.4-1,1s0.4,1,1,1H60c-1,1.1-1.5,2.5-1.5,4c0,3.3,2.7,6,6,6c3.3,0,6-2.7,6-6   C70.5,39.2,67.8,36.5,64.5,36.5z M64.5,46.5c-2.2,0-4-1.8-4-4s1.8-4,4-4c2.2,0,4,1.8,4,4S66.7,46.5,64.5,46.5z"/><path d="M55.7,61.5H40c1-1.1,1.5-2.5,1.5-4c0-3.3-2.7-6-6-6c-3.3,0-6,2.7-6,6c0,3.3,2.7,6,6,6h20.2c0.6,0,1-0.4,1-1   S56.2,61.5,55.7,61.5z M31.5,57.5c0-2.2,1.8-4,4-4s4,1.8,4,4c0,2.2-1.8,4-4,4S31.5,59.7,31.5,57.5z"/><path d="M55.7,41.5H44.3c-0.6,0-1,0.4-1,1s0.4,1,1,1h11.3c0.6,0,1-0.4,1-1S56.2,41.5,55.7,41.5z"/><path d="M55.7,46.5H44.3c-0.6,0-1,0.4-1,1c0,0.6,0.4,1,1,1h11.3c0.6,0,1-0.4,1-1C56.7,47,56.2,46.5,55.7,46.5z"/><path d="M55.7,51.5H44.3c-0.6,0-1,0.4-1,1s0.4,1,1,1h11.3c0.6,0,1-0.4,1-1S56.2,51.5,55.7,51.5z"/><path d="M55.7,56.5H44.3c-0.6,0-1,0.4-1,1s0.4,1,1,1h11.3c0.6,0,1-0.4,1-1S56.2,56.5,55.7,56.5z"/><path d="M36.1,59.4c0.2,0.2,0.5,0.3,0.7,0.3s0.5-0.1,0.7-0.3c0.4-0.4,0.4-1,0-1.4l-0.5-0.5l0.5-0.5c0.4-0.4,0.4-1,0-1.4   s-1-0.4-1.4,0l-0.5,0.5L35,55.5c-0.4-0.4-1-0.4-1.4,0s-0.4,1,0,1.4l0.5,0.5L33.6,58c-0.4,0.4-0.4,1,0,1.4c0.2,0.2,0.5,0.3,0.7,0.3   s0.5-0.1,0.7-0.3l0.5-0.5L36.1,59.4z"/><path d="M66.4,40.6c-0.4-0.4-1-0.4-1.4,0l-0.5,0.5l-0.5-0.5c-0.4-0.4-1-0.4-1.4,0c-0.4,0.4-0.4,1,0,1.4l0.5,0.5l-0.5,0.5   c-0.4,0.4-0.4,1,0,1.4c0.2,0.2,0.5,0.3,0.7,0.3s0.5-0.1,0.7-0.3l0.5-0.5l0.5,0.5c0.2,0.2,0.5,0.3,0.7,0.3s0.5-0.1,0.7-0.3   c0.4-0.4,0.4-1,0-1.4l-0.5-0.5l0.5-0.5C66.8,41.6,66.8,41,66.4,40.6z"/></g></svg>