<?xml version="1.0" ?><!DOCTYPE svg  PUBLIC '-//W3C//DTD SVG 1.1//EN'  'http://www.w3.org/Graphics/SVG/1.1/DTD/svg11.dtd'><svg enable-background="new 0 0 128 128" id="Слой_1" version="1.1" viewBox="0 0 128 128" xml:space="preserve" xmlns="http://www.w3.org/2000/svg" xmlns:xlink="http://www.w3.org/1999/xlink"><g><path d="M109.29,100.117l-17.11-17.35c-1.189-1.204-3.275-1.219-4.481-0.031l-5.407,5.333   c-1.244,1.228-1.257,3.239-0.021,4.49l17.32,17.151c0.195,0.193,0.449,0.29,0.704,0.29c0.254,0,0.508-0.096,0.703-0.289   l8.285-8.181C109.673,101.143,109.677,100.51,109.29,100.117z M100.293,107.594L83.684,91.146c-0.453-0.458-0.447-1.2,0.011-1.653   l5.407-5.333c0.22-0.217,0.511-0.336,0.82-0.336c0.316,0,0.612,0.124,0.833,0.348l16.408,16.638L100.293,107.594z" fill="#323638"/><path d="M94.187,55.882C94.187,34.994,77.193,18,56.305,18S18.422,34.994,18.422,55.882   c0,20.889,16.994,37.883,37.882,37.883S94.187,76.771,94.187,55.882z M56.305,91.765c-19.786,0-35.882-16.097-35.882-35.883   S36.519,20,56.305,20s35.882,16.097,35.882,35.882S76.09,91.765,56.305,91.765z" fill="#323638"/><path d="M85.764,54.882l-14.682,0.002l-3.776-20.33c-0.179-0.963-0.985-1.633-1.963-1.633c-0.005,0-0.01,0-0.014,0   c-0.984,0.007-1.788,0.689-1.955,1.658l-6.268,36.427L50.03,44.454c-0.231-0.865-0.988-1.461-1.883-1.482   c-0.904-0.019-1.679,0.539-1.95,1.391l-5.485,17.261l-3.568-5.793c-0.367-0.594-1.002-0.949-1.7-0.949h-9.109c-0.552,0-1,0.448-1,1   s0.448,1,1,1l9.107-0.001l3.568,5.792c0.415,0.673,1.16,1.038,1.943,0.935c0.784-0.096,1.42-0.623,1.661-1.376l5.485-17.262   l7.076,26.553c0.235,0.885,1.02,1.483,1.927,1.483c0.031,0,0.062,0,0.093-0.002c0.945-0.042,1.718-0.724,1.878-1.656l6.268-36.427   l3.777,20.33c0.176,0.946,1.001,1.632,1.963,1.632h14.685c0.552,0,1-0.448,1-1S86.316,54.882,85.764,54.882z" fill="#323638"/></g></svg>