<?xml version="1.0" ?><!DOCTYPE svg  PUBLIC '-//W3C//DTD SVG 1.1//EN'  'http://www.w3.org/Graphics/SVG/1.1/DTD/svg11.dtd'><svg enable-background="new 0 0 128 128" id="Слой_1" version="1.1" viewBox="0 0 128 128" xml:space="preserve" xmlns="http://www.w3.org/2000/svg" xmlns:xlink="http://www.w3.org/1999/xlink"><g><g><g><g><g><path d="M64.45,53.122c-5.514,0-10,4.486-10,10s4.486,10,10,10s10-4.486,10-10S69.964,53.122,64.45,53.122z        M64.45,71.122c-4.411,0-8-3.589-8-8s3.589-8,8-8s8,3.589,8,8S68.861,71.122,64.45,71.122z" fill="#323638"/><path d="M80.357,57.967c-0.412-1.266-1.346-2.301-2.564-2.839c-0.881-0.389-1.489-1.227-1.587-2.185       c-0.246-2.401-2.248-4.212-4.658-4.212c-0.332,0-0.666,0.036-0.993,0.106c-0.933,0.202-1.932-0.124-2.568-0.834       c-0.888-0.992-2.161-1.561-3.492-1.561s-2.604,0.569-3.492,1.561c-0.636,0.71-1.633,1.035-2.569,0.834       c-0.327-0.07-0.661-0.106-0.993-0.106c-2.41,0-4.412,1.811-4.657,4.212c-0.098,0.958-0.707,1.796-1.588,2.185       c-1.218,0.538-2.152,1.573-2.563,2.84c-0.412,1.266-0.264,2.652,0.405,3.803c0.484,0.833,0.484,1.868,0,2.701       c-0.669,1.15-0.817,2.537-0.406,3.803c0.411,1.267,1.346,2.302,2.563,2.839c0.881,0.39,1.49,1.227,1.588,2.185       c0.093,0.91,0.44,1.734,0.964,2.408l-2.229,9.368c-0.083,0.35,0.028,0.718,0.292,0.963c0.263,0.245,0.638,0.33,0.982,0.222       l5.26-1.66l3.964,3.835c0.194,0.188,0.445,0.281,0.695,0.281c0.261,0,0.522-0.102,0.719-0.305       c0.384-0.397,0.374-1.03-0.023-1.414l-4.393-4.25c-0.265-0.255-0.647-0.346-0.996-0.235l-4.146,1.309l1.608-6.757       c0.599,0.277,1.258,0.446,1.96,0.446c0.332,0,0.667-0.036,0.994-0.106c0.932-0.2,1.933,0.125,2.568,0.835       c0.888,0.992,2.161,1.561,3.492,1.561s2.604-0.569,3.492-1.561c0.636-0.71,1.634-1.036,2.568-0.835       c0.328,0.071,0.662,0.106,0.994,0.106c0.559,0,1.093-0.107,1.591-0.286l2.486,11.334l-4.18-1.319       c-0.347-0.11-0.732-0.021-0.996,0.235l-3.114,3.013l-2.068-9.135c-0.122-0.539-0.657-0.879-1.196-0.754       c-0.539,0.122-0.876,0.657-0.754,1.196l2.46,10.869c0.08,0.353,0.343,0.634,0.689,0.738c0.094,0.028,0.19,0.042,0.286,0.042       c0.256,0,0.506-0.098,0.695-0.281l3.964-3.835l5.26,1.66c0.339,0.108,0.712,0.025,0.976-0.215s0.378-0.604,0.302-0.953       l-3.021-13.772c0.693-0.729,1.168-1.672,1.277-2.747c0.098-0.958,0.706-1.795,1.587-2.185c1.218-0.538,2.152-1.572,2.564-2.838       c0.411-1.267,0.264-2.653-0.406-3.804c-0.484-0.833-0.484-1.868,0-2.701C80.621,60.62,80.769,59.233,80.357,57.967z        M78.223,65.477c0.389,0.669,0.472,1.444,0.232,2.181c-0.239,0.736-0.761,1.314-1.47,1.627       c-1.537,0.679-2.598,2.14-2.768,3.811c-0.161,1.566-1.682,2.69-3.24,2.354c-1.628-0.352-3.372,0.217-4.48,1.456       c-1.033,1.154-2.971,1.154-4.004,0c-0.888-0.992-2.161-1.562-3.493-1.562c-0.331,0-0.664,0.036-0.988,0.105       c-1.557,0.337-3.08-0.786-3.24-2.354c-0.171-1.671-1.231-3.132-2.769-3.811c-0.708-0.313-1.23-0.891-1.47-1.628       c-0.239-0.736-0.157-1.511,0.232-2.18c0.845-1.453,0.845-3.258,0-4.711c-0.389-0.669-0.472-1.444-0.233-2.18       c0.239-0.737,0.761-1.315,1.47-1.628c1.537-0.679,2.598-2.139,2.769-3.811c0.16-1.567,1.681-2.687,3.24-2.354       c0.324,0.07,0.657,0.105,0.988,0.105c1.332,0,2.604-0.569,3.492-1.561c1.033-1.154,2.971-1.154,4.004,0       c1.109,1.239,2.852,1.808,4.48,1.456c1.563-0.333,3.08,0.787,3.24,2.354c0.17,1.672,1.231,3.132,2.769,3.811       c0.708,0.313,1.23,0.891,1.47,1.628c0.239,0.736,0.157,1.511-0.232,2.181C77.378,62.219,77.378,64.024,78.223,65.477z" fill="#323638"/><path d="M104,25.5H24c-3.309,0-6,2.691-6,6v65c0,3.309,2.691,6,6,6h80c3.309,0,6-2.691,6-6v-65       C110,28.191,107.309,25.5,104,25.5z M24,27.5h80c2.206,0,4,1.794,4,4v5.655H20V31.5C20,29.294,21.794,27.5,24,27.5z M104,100.5       H24c-2.206,0-4-1.794-4-4V39.155h88V96.5C108,98.706,106.206,100.5,104,100.5z" fill="#323638"/></g><circle cx="24.553" cy="32.5" fill="none" r="0.5" stroke="#323638" stroke-linecap="round" stroke-linejoin="round" stroke-miterlimit="10" stroke-width="2"/><circle cx="29.953" cy="32.5" fill="none" r="0.5" stroke="#323638" stroke-linecap="round" stroke-linejoin="round" stroke-miterlimit="10" stroke-width="2"/><circle cx="35.353" cy="32.5" fill="none" r="0.5" stroke="#323638" stroke-linecap="round" stroke-linejoin="round" stroke-miterlimit="10" stroke-width="2"/></g></g></g></g></svg>